<?xml version="1.0" encoding="utf-8"?>
<!-- Generator: Adobe Illustrator 25.0.0, SVG Export Plug-In . SVG Version: 6.00 Build 0)  -->
<svg version="1.1" id="Calque_1" xmlns="http://www.w3.org/2000/svg" xmlns:xlink="http://www.w3.org/1999/xlink" x="0px" y="0px"
	 viewBox="0 0 2500 1600" style="enable-background:new 0 0 2500 1600;" xml:space="preserve">
<style type="text/css">
	.st0{fill:#93DBA9;}
	.st1{fill:#15A039;}
	.st2{fill:#20C647;}
	.st3{fill:url(#SVGID_1_);}
	.st4{fill:#FFFFFF;}
	.st5{fill:url(#SVGID_2_);}
	.st6{fill:url(#SVGID_3_);}
	.st7{fill:url(#SVGID_4_);}
	.st8{fill:url(#SVGID_5_);}
	.st9{fill:url(#SVGID_6_);}
	.st10{fill:url(#SVGID_7_);}
	.st11{fill:url(#SVGID_8_);}
	.st12{fill:url(#SVGID_9_);}
	.st13{fill:#DEAC68;}
	.st14{fill:#333333;}
	.st15{fill:#34518A;}
	.st16{fill:#183862;}
	.st17{fill:#102642;}
	.st18{fill:#F1AB89;}
	.st19{fill:#CC7E58;}
	.st20{fill:#5C5C5C;}
	.st21{fill:url(#SVGID_10_);}
	.st22{fill:#DE6845;}
	.st23{fill:#EF7550;}
	.st24{fill:#132C4D;}
	.st25{fill:#DE932C;}
	.st26{fill:url(#SVGID_11_);}
	.st27{fill:none;stroke:#FFFFFF;stroke-miterlimit:10;}
	.st28{fill:#F2F5FF;}
</style>
<g id="Objects">
	<g>
		<path class="st0" d="M2060,1371c0,0-1165.2,0-1580,0c-252.4-270.5-49.9-389.3-197.2-534.3s-106.5-371.1-15.1-467.5
			c167.5-176.8,497.2-173,690-63.2c194.1,110.5,276.1,142.1,472.2,75.8s452.5-96.3,595.7,53.7c93.4,97.9,107.7,227.2,34.4,325.1
			s-6,228.7,66.5,315.4C2200.7,1164.8,2141.6,1321.3,2060,1371z"/>
		<g>
			<path class="st1" d="M2107.9,1039.9c39.2-52.9,97.2-15.5,29.4,97.3c-54.9,91.4-103.2,223.3-103.2,223.3
				S2039.1,1132.7,2107.9,1039.9z"/>
			<g>
				<path class="st1" d="M1960.9,421.9c-96.4,22.8-124.5,161.1-61.7,244.2c74.9,99.1-21.5,148.4,18.4,262.4
					c38,109,180.1,105.8,219.2,20.4c66.4-145-73.4-161.6-4.5-271.4C2186.4,591.1,2174.2,371.4,1960.9,421.9z"/>
				<path class="st2" d="M2067.3,746.3c-1.6,15.1-4.5,30.1-9.5,44.4c-3.3,9.4-7.6,18-12.2,26.5c-0.7-7.5-1.5-15-2.3-22.5
					c-4.1-36.7-10.2-73.1-17.8-109.2c3.7-4.7,7.6-9.2,11-14.2c4.2-6.1,8.1-12.3,11.7-18.7c7.4-13.1,14-26.3,18.9-40.6
					c9.7-28.2,14.1-58.2,12.8-88c-0.7-17.1-3.7-34-8.4-50.4c-1.1-3.7-6.4-1.7-5.5,1.9c13.3,55.9,5.9,117.6-20.5,168.8
					c-3.7,7.2-7.9,14.1-12.5,20.8c-2.9,4.3-5.9,8.7-9.1,12.9c-2.3-10.6-4.7-21.2-7.3-31.7c-1.4-5.9-10.2-2.8-8.8,3
					c4.5,19.3,8.4,38.7,11.7,58.2c-5.4-3.6-11.2-6.9-16.5-10.7c-7.2-5.2-14-10.7-20.4-16.7c-13.1-12-24.7-25.3-32.1-41.7
					c-1-2.3-4.7-1.1-3.7,1.3c6.9,16.3,17.7,30.7,30.7,42.7c6.6,6.2,13.8,11.8,21,17.3c7.4,5.7,14.5,12,22.3,17
					c0.1,0.1,0.2,0.1,0.4,0.2c7.7,48.1,12,96.9,14,145.6c-12-15.6-24.1-31-35-47.5c-13.4-20.4-25.8-41.4-36.8-63.2
					c-1.5-2.9-6.7-0.4-5.2,2.6c10.8,22.2,22.6,43.8,35.9,64.6c12.6,19.8,26.1,39.8,41.6,57.5c0.4,13.6,0.7,27.2,0.9,40.7
					c0.2,16.6,0.1,33.2-0.2,49.8c-11.2-10-21.9-20.3-31.5-32.2c-13.3-16.4-24.9-34.1-34-53.2c-2-4.3-9.1-2-7.1,2.4
					c9.2,19.7,20.2,38.6,33.7,55.7c11.3,14.3,24.2,28.5,38.6,40.1c-0.6,24.2-1.7,48.5-3.2,72.7c-2.7,43.3-7.2,86.5-8.6,129.8
					c-1.4,46.4,1.6,96.2,21.5,138.9c2.1,4.6,6.7,7.6,11.8,5.8c4.6-1.5,7.7-7.1,5.8-11.8c-7.8-19.4-13.7-39.2-16.8-59.9
					c-3.1-20.7-4.1-41.6-3.9-62.5c0.3-43,4.8-85.8,6.9-128.7c3.7-76.4,4-153.1-2.3-229.3c17.8-24.9,27.4-57.7,28.6-88
					C2075.8,742.1,2067.8,741.6,2067.3,746.3z"/>
				<path class="st2" d="M1951.6,703.3c-2.2-15.5-10-30.3-17.2-44.1c-7.2-13.7-15.1-27.1-21.2-41.4c-11.9-27.7-15.5-59-11.5-88.9
					c2.3-17.4,7.1-34.4,14.5-50.3c2.6-5.5-5.2-9.9-8.3-4.6c-15.7,27.5-23.5,58.8-22.7,90.5c0.8,32.9,12.4,62.6,27.7,91.2
					c4.4,8.2,8.8,16.3,12.8,24.7c3.9,8.2,6.5,16.8,9.8,25.3c1.5,3.8,4.9,6.5,9.2,5.8C1948.2,710.9,1952.2,707.4,1951.6,703.3z"/>
				<path class="st2" d="M1954.5,939.3c-31.3-43.5-16.2-98.8-7.4-146.9c0.8-4.5-5.2-5.7-6.7-1.6c-18.7,49.4-32.6,109.9,0.3,156.8
					C1946.6,955.9,1960.5,947.6,1954.5,939.3z"/>
			</g>
			<path class="st1" d="M2034,1360.5c0,0,126.8-153.3,207.8-185.5c81.1-32.2,35-98.6-34.2-64.5
				C2138.4,1144.7,2039.1,1261.8,2034,1360.5z"/>
			<path class="st1" d="M2034,1360.5c37.4-120,65.7-117.7,71.6-99.8s14.8,6,25.4-12.2s37.6-36.3,36.2-17c-1.4,19.3,33-31,41-17.8
				s-25.9,46.5-35.5,56.3s21.1,6.4,16.4,20.9c-4.7,14.5-53,10-52.8,25.4s29.4,1.2,8.8,21.7C2113.2,1369.9,2034,1360.5,2034,1360.5z"
				/>
		</g>
		<g>
			<path class="st1" d="M491.4,1014.3c42.1-56.8,104.3-16.6,31.6,104.5c-58.9,98.1-110.8,239.7-110.8,239.7S417.6,1114,491.4,1014.3
				z"/>
			<path class="st1" d="M412.1,1358.5c0,0,136.1-164.6,223.1-199.1c87-34.6,37.6-105.9-36.8-69.2
				C524.1,1126.9,417.5,1252.6,412.1,1358.5z"/>
			<path class="st1" d="M412.1,1358.5c18.5-219.7-29.2-234.6-50.6-209.4c-21.3,25.2-28,0-33.2-36.6c-5.3-36.6-37.1-83.8-47.6-51.5
				c-10.4,32.3-33.2-72.1-54.9-56.1s11.4,92.6,20.6,115c9.2,22.3-38.5-3.5-40.4,23.1c-1.9,26.7,79.5,51.3,69,76.2
				c-10.5,24.9-48.5-17.5-28.6,29.4C277.3,1321.6,412.1,1358.5,412.1,1358.5z"/>
			<path class="st1" d="M412.1,1358.5c40.1-128.9,70.6-126.3,76.9-107.1c6.3,19.2,15.9,6.4,27.3-13.1c11.4-19.6,40.4-39,38.8-18.2
				c-1.5,20.7,35.4-33.2,44.1-19.2c8.6,14.1-27.8,49.9-38.1,60.5c-10.3,10.5,22.7,6.9,17.6,22.4s-56.9,10.8-56.7,27.3
				s31.5,1.3,9.5,23.3C497.1,1368.6,412.1,1358.5,412.1,1358.5z"/>
			<g>
				<path class="st1" d="M316.1,450.2c-97.5,23.1-126,163-62.5,247c75.8,100.3-21.7,150.1,18.6,265.5
					c38.5,110.2,182.2,107.1,221.8,20.6c67.2-146.7-74.3-163.5-4.6-274.6C544.2,621.5,531.9,399.2,316.1,450.2z"/>
				<path class="st2" d="M423.7,778.5c-1.6,15.3-4.6,30.4-9.7,44.9c-3.3,9.5-7.6,18.2-12.4,26.8c-0.7-7.6-1.5-15.2-2.3-22.8
					c-4.2-37.1-10.3-74-18-110.5c3.8-4.7,7.7-9.3,11.1-14.3c4.2-6.1,8.2-12.5,11.8-19c7.5-13.2,14.2-26.6,19.2-41
					c9.9-28.5,14.3-58.9,13-89.1c-0.7-17.3-3.7-34.4-8.5-51c-1.1-3.7-6.5-1.8-5.6,1.9c13.5,56.6,6,119-20.8,170.8
					c-3.8,7.3-8,14.3-12.7,21.1c-3,4.4-6,8.8-9.2,13c-2.3-10.7-4.8-21.4-7.4-32.1c-1.4-5.9-10.3-2.8-8.9,3
					c4.6,19.5,8.5,39.1,11.8,58.9c-5.5-3.7-11.3-6.9-16.7-10.8c-7.2-5.2-14.1-10.9-20.7-16.9c-13.3-12.2-25-25.6-32.5-42.2
					c-1-2.3-4.8-1.1-3.8,1.3c7,16.5,17.9,31,31,43.2c6.7,6.2,14,11.9,21.2,17.5c7.4,5.7,14.6,12.2,22.6,17.2
					c0.1,0.1,0.3,0.1,0.4,0.2c7.8,48.7,12.1,98,14.2,147.3c-12.2-15.7-24.4-31.4-35.4-48.1c-13.6-20.6-26.1-41.9-37.3-63.9
					c-1.5-3-6.8-0.4-5.3,2.6c10.9,22.5,22.9,44.4,36.4,65.4c12.8,20,26.4,40.3,42.1,58.2c0.5,13.8,0.7,27.5,0.9,41.2
					c0.2,16.8,0.1,33.6-0.2,50.3c-11.4-10.1-22.2-20.5-31.9-32.6c-13.4-16.6-25.2-34.5-34.4-53.8c-2.1-4.3-9.2-2-7.2,2.4
					c9.3,19.9,20.4,39.1,34.1,56.3c11.5,14.4,24.5,28.8,39.1,40.6c-0.6,24.5-1.7,49-3.2,73.5c-2.7,43.8-7.3,87.5-8.7,131.3
					c-1.4,46.9,1.6,97.4,21.8,140.5c2.2,4.6,6.8,7.7,12,5.9c4.6-1.6,7.8-7.2,5.9-12c-7.9-19.6-13.9-39.6-17-60.6
					c-3.2-20.9-4.1-42.1-4-63.2c0.3-43.5,4.9-86.8,7-130.2c3.8-77.3,4-154.9-2.3-232c18-25.2,27.7-58.4,29-89
					C432.3,774.2,424.2,773.7,423.7,778.5z"/>
				<path class="st2" d="M306.6,735c-2.3-15.7-10.1-30.7-17.4-44.6c-7.3-13.9-15.3-27.4-21.5-41.8c-12-28.1-15.6-59.7-11.6-89.9
					c2.3-17.6,7.2-34.8,14.7-50.9c2.6-5.5-5.3-10-8.4-4.6c-15.9,27.8-23.8,59.5-23,91.5c0.8,33.3,12.5,63.3,28.1,92.3
					c4.4,8.3,8.9,16.5,12.9,25c3.9,8.3,6.5,17,9.9,25.6c1.5,3.9,4.9,6.6,9.3,5.9C303.2,742.7,307.2,739.1,306.6,735z"/>
				<path class="st2" d="M309.6,973.7c-31.6-44-16.4-100-7.5-148.7c0.8-4.6-5.3-5.8-6.8-1.6c-19,50-33,111.2,0.3,158.6
					C301.6,990.6,315.7,982.2,309.6,973.7z"/>
			</g>
		</g>
		<g>
			<g>
				<g>
					
						<linearGradient id="SVGID_1_" gradientUnits="userSpaceOnUse" x1="1133.1049" y1="485.9662" x2="1236.9784" y2="485.9662" gradientTransform="matrix(0.9628 0.2702 0.2702 -0.9628 -76.9085 1069.6451)">
						<stop  offset="0" style="stop-color:#FF8455"/>
						<stop  offset="1" style="stop-color:#B12D00"/>
					</linearGradient>
					<path class="st3" d="M1205.6,885.4c-10.2-30.6-47-24.8-54.6,2.4c-6.8,24.1,4.2,47.6,30.4,84c41.3-17.4,62.8-31.8,69.6-55.9
						C1258.6,888.7,1230.2,864.6,1205.6,885.4z"/>
				</g>
				<path class="st4" d="M1169.3,923.3c-3.8-7.3-6.8-14.6-7.1-23c-0.3-7.8,2-15.3,6-22c1-1.6-1.4-3.4-2.7-2
					c-11.5,13.8-9.9,34.9-0.7,49.6C1166.6,928.9,1170.8,926.3,1169.3,923.3z"/>
			</g>
			<g>
				<g>
					
						<linearGradient id="SVGID_2_" gradientUnits="userSpaceOnUse" x1="1047.7687" y1="735.8036" x2="1220.9272" y2="735.8036" gradientTransform="matrix(0.9761 -0.2172 -0.2172 -0.9761 145.4395 1961.4233)">
						<stop  offset="0" style="stop-color:#FF8455"/>
						<stop  offset="1" style="stop-color:#B12D00"/>
					</linearGradient>
					<path class="st5" d="M1079.1,935c-39.1-36.9-88.6,0.7-78.3,46.7c9.1,40.8,43.7,66.7,110.8,99.4c46.9-58.1,67.3-96.3,58.2-137.1
						C1159.6,898,1098.9,885,1079.1,935z"/>
				</g>
				<path class="st4" d="M1027.8,1007.6c-4.2-6.2-8.9-11.7-11.7-18.8c-2.2-5.5-3.1-11.5-3.1-17.4c0.1-12.8,4.7-24.8,13.8-33.8
					c1.9-1.9-1-4.7-3-2.9c-22.2,20.3-21.9,55.7-0.7,76.6C1025.5,1013.6,1029.8,1010.5,1027.8,1007.6z"/>
			</g>
			<g>
				<g>
					
						<linearGradient id="SVGID_3_" gradientUnits="userSpaceOnUse" x1="1150.0656" y1="646.5732" x2="1248.0028" y2="548.636" gradientTransform="matrix(1 0 0 -1 0 1600)">
						<stop  offset="0" style="stop-color:#FF8455"/>
						<stop  offset="1" style="stop-color:#B12D00"/>
					</linearGradient>
					<path class="st6" d="M1185.3,956.9c-25.6-37.8-73.5-15.8-73.5,24.2c0,35.4,23.9,63.4,73.5,102.9
						c49.6-39.5,73.5-67.4,73.5-102.9C1258.8,941.1,1210.9,919.2,1185.3,956.9z"/>
				</g>
				<path class="st4" d="M1133.1,1002.2c-4.3-6.4-7.4-12.9-7.8-20.8c-0.4-7.7,1.6-15.2,5.6-21.8c0.8-1.3-1.2-2.8-2.1-1.6
					c-11,13.7-12,34-0.1,47.6C1130.8,1008.1,1134.9,1004.9,1133.1,1002.2z"/>
			</g>
			<g>
				<g>
					
						<linearGradient id="SVGID_4_" gradientUnits="userSpaceOnUse" x1="1273.7426" y1="799.1217" x2="1273.7426" y2="652.5754" gradientTransform="matrix(1 0 0 -1 0 1600)">
						<stop  offset="0" style="stop-color:#FF8455"/>
						<stop  offset="1" style="stop-color:#B12D00"/>
					</linearGradient>
					<path class="st7" d="M1261,848.5c-37.5-18.3-65.5,21-47.2,52.7c16.1,28.1,47.8,39.3,105.1,48c21.3-53.9,27.6-86.9,11.4-115
						C1312.1,802.5,1264.1,806.9,1261,848.5z"/>
				</g>
				<path class="st4" d="M1239.8,849.6c-5.2,0.1-9.5,1.4-13.3,5.1c-4,3.9-6.2,9.4-7.5,14.8c-0.9,3.5,4.6,4.8,5.5,1.3
					c1.8-7.4,6.6-17.2,15.4-17.7C1242.1,853,1242,849.6,1239.8,849.6z"/>
				<path class="st4" d="M1278.4,824.2c-6.4,6.8-12.5,16.2-7.9,25.7c1.3,2.6,5.3,0.7,4.5-2c-2.3-8,1.1-14.8,6.3-20.8
					C1283,825.1,1280.2,822.3,1278.4,824.2z"/>
			</g>
			<g>
				<g>
					
						<linearGradient id="SVGID_5_" gradientUnits="userSpaceOnUse" x1="1318.7601" y1="552.2225" x2="1394.3646" y2="552.2225" gradientTransform="matrix(0.9628 0.2702 0.2702 -0.9628 -76.9085 1069.6451)">
						<stop  offset="0" style="stop-color:#FF8455"/>
						<stop  offset="1" style="stop-color:#B12D00"/>
					</linearGradient>
					<path class="st8" d="M1385.9,877.9c-7.4-22.2-34.2-18-39.8,1.8c-4.9,17.5,3,34.7,22.1,61.1c30-12.7,45.8-23.2,50.7-40.7
						C1424.5,880.3,1403.8,862.7,1385.9,877.9z"/>
				</g>
				<path class="st4" d="M1358.8,872.4c1.3-1.6-0.8-3.8-2.4-2.3c-4.7,4.6-8.1,10.2-9,16.8c-0.9,7,1.7,13.8,4.7,20
					c1.3,2.6,5.9,0.7,4.7-2c-2.2-5.4-5-10.8-4.7-16.8C1352.4,882.3,1355.3,876.9,1358.8,872.4z"/>
			</g>
			<g>
				<g>
					
						<linearGradient id="SVGID_6_" gradientUnits="userSpaceOnUse" x1="1317.7687" y1="374.8679" x2="1490.9303" y2="374.8679" gradientTransform="matrix(0.9633 0.2684 0.2684 -0.9633 -36.7665 997.662)">
						<stop  offset="0" style="stop-color:#FF8455"/>
						<stop  offset="1" style="stop-color:#B12D00"/>
					</linearGradient>
					<path class="st9" d="M1433.7,952.5c-17.1-50.9-78.4-41.2-91.1,4.2c-11.2,40.2,7.1,79.4,50.9,139.9
						c68.8-29.1,104.7-53.2,115.9-93.4C1522.1,957.8,1474.7,917.8,1433.7,952.5z"/>
				</g>
				<path class="st4" d="M1405.5,928.5c-16.3-7.8-34.1-0.5-44.4,13.3c-10.3,13.7-17.5,35.4-10.6,52c1.6,3.8,7.7,2.2,6.2-1.8
					c-5.3-14.6-0.3-31.6,7.9-44.2c8-12.1,24.1-21.6,38.5-15.2C1406,933.8,1408.3,929.8,1405.5,928.5z"/>
			</g>
			<g>
				<g>
					
						<linearGradient id="SVGID_7_" gradientUnits="userSpaceOnUse" x1="1260.761" y1="673.8408" x2="1359.4677" y2="575.1341" gradientTransform="matrix(1 0 0 -1 0 1600)">
						<stop  offset="0" style="stop-color:#FF8455"/>
						<stop  offset="1" style="stop-color:#B12D00"/>
					</linearGradient>
					<path class="st10" d="M1288.6,931.4c-39.3-34.1-85.6,4.1-73.9,48.2c10.4,39.1,44.9,62.8,111.1,91.8
						c43.1-58,61.3-95.8,50.9-134.9C1365,892.4,1305.8,882.3,1288.6,931.4z"/>
				</g>
				<path class="st4" d="M1257.7,927.7c-17.4,1.2-28.6,17-31.8,33c-3.4,17,2,37,17.7,46.2c3.6,2.1,6.3-3.2,3.1-5.5
					c-12.5-9.1-17.5-24.1-14.6-39.2c2.5-13,11.1-28.9,25.7-30.5C1260.3,931.4,1260.3,927.5,1257.7,927.7z"/>
			</g>
			<g>
				<g>
					
						<linearGradient id="SVGID_8_" gradientUnits="userSpaceOnUse" x1="1401.0748" y1="427.308" x2="1558.9752" y2="427.308" gradientTransform="matrix(0.9633 0.2684 0.2684 -0.9633 -36.7665 997.662)">
						<stop  offset="0" style="stop-color:#FF8455"/>
						<stop  offset="1" style="stop-color:#B12D00"/>
					</linearGradient>
					<path class="st11" d="M1519.1,927.6c-15.6-46.4-71.5-37.5-83,3.9c-10.2,36.7,6.5,72.4,46.4,127.6
						c62.7-26.5,95.5-48.5,105.7-85.2C1599.7,932.5,1556.4,895.9,1519.1,927.6z"/>
				</g>
				<path class="st4" d="M1469.8,904c-15.3,5-27,18.7-28.3,35c-0.3,3.4,5.6,4.1,6,0.6c1.7-13.8,10.1-26.3,23.6-31.1
					C1474,907.5,1472.7,903,1469.8,904z"/>
			</g>
			
				<linearGradient id="SVGID_9_" gradientUnits="userSpaceOnUse" x1="1297.85" y1="476.8645" x2="1297.85" y2="235.8666" gradientTransform="matrix(1 0 0 -1 0 1600)">
				<stop  offset="0" style="stop-color:#C27926"/>
				<stop  offset="1" style="stop-color:#DC8F2A"/>
			</linearGradient>
			<rect x="1018.7" y="1022.3" class="st12" width="558.3" height="330.3"/>
			<polygon class="st13" points="1577,1022.3 1018.7,1022.3 950.6,1138 1645.1,1138 			"/>
		</g>
		<rect x="180.9" y="1352.5" class="st1" width="2138.3" height="18.5"/>
		<g>
			<g>
				<g>
					<g>
						<path class="st14" d="M1165.2,1303.1c0,0,13.9,28.8,8.9,49.6c-41.7,0-100.2,0-100.2,0s0-12.9,17.9-17.9s45.7-22.8,45.7-22.8
							L1165.2,1303.1z"/>
						<path class="st14" d="M984.8,1303.1c0,0,13.9,28.8,8.9,49.6c-41.7,0-100.2,0-100.2,0s0-12.9,17.9-17.9s45.7-22.8,45.7-22.8
							L984.8,1303.1z"/>
						<path class="st15" d="M1110,920c4.6,19.8,17.5,51.6,5.6,88.3s3.9,140.9,4.9,148.9c1,7.9,53.6,113.1,53.6,155.8
							c0,0-28.8,14.9-45.7,5c-32.4-60.7-91.8-200.8-101.2-249.1c-16.9,42.7-23.8,87.3-23.8,87.3s11.9,33.7,0,72.4
							c-11.9,38.7-6.9,86.3-6.9,86.3s-43.9,18.9-49.8-8.9c0.1-86.3-5.2-166.7,7.9-255.1c13.1-88.3,19.1-131,19.1-131L1110,920
							L1110,920z"/>
						<path class="st16" d="M994.8,1214.8c8.4-28.1-5.5-60.7-5.5-60.7s10.3-37.8,16-68.2c5.7-30.4,6.6-93.4,6.6-93.4
							s6.6,48.1,15.4,76.4c-16.9,42.7-23.8,87.3-23.8,87.3s11.9,33.7,0,72.4c-11.9,38.7-6.9,86.3-6.9,86.3s-3.6,1.5-8.9,3.1
							C974.7,1289,986.7,1241.8,994.8,1214.8z"/>
						<path class="st4" d="M1068.4,958.5h0.9c0,0.4,0.3,37,22.5,47.8c0.3-22.6-0.2-44.4-1.5-56.1l0.9-0.1c2.3,20.1,1.8,70.5,0,103.1
							c-1.8,32.6,4.5,90,15.4,115.2c1.3,2.9,2.9,6.6,4.8,10.9c15.7,35.6,48.4,109.6,47.3,139.6h-0.9c1.1-29.8-31.6-103.7-47.3-139.3
							c-1.9-4.3-3.5-8-4.8-10.9c-10.9-25.3-17.3-82.9-15.4-115.6c0.8-13.4,1.3-29.8,1.5-45.9
							C1068.7,996.5,1068.4,958.9,1068.4,958.5z"/>
					</g>
					<g>
						<path class="st16" d="M954,924.9c-1.2,7.4,2,14.9,8.2,19.1c15.5,10.5,43.5,22.2,72,22.2c36.6,0,94.6-15.2,95.6-21.3
							s-12.3-49.1-19.1-78.4c19.6-25.1,37.9-59.1,28.9-93.5s-35-48.2-51.1-51.7l-34.4,5.5c0,0-42.7,6.7-61.7,38
							C976.8,790.7,959.4,891.6,954,924.9z"/>
						<path class="st17" d="M998.5,888.6c51.3,21.9,93.2,2.8,112.3-22.1l3.9,15.9C1114.7,882.4,1055.2,934.4,998.5,888.6z"/>
						<path class="st4" d="M1022.4,848.8c24.9,0,46.2-7.8,66.6-54.2l-0.8-0.4c-23,52.3-47.2,55.1-76.3,53.3l-0.1,0.9
							C1015.5,848.7,1019,848.8,1022.4,848.8z"/>
					</g>
				</g>
				<g>
					<g>
						<path class="st18" d="M1042.7,641c-12.5,16.1-21.9,52.7,0,66.5c19.9,12.6,41.1-1.3,48.5-10.3c5.8,6.4,20.2-3.2,18.6-12.2
							s-9-9.3-13.2-4.2c-3.5-1.6-4.5-9-3.5-13.5s1.3-9,0-11.6c0,0-1.6-4.5-8.4-4.8c-6.7-0.3-12.7-0.3-15-6.1s-8.1-6.1-11.3-3.9
							C1055.2,643.3,1047.8,647.4,1042.7,641z"/>
						<path class="st14" d="M1096.7,680.9c-3.5-1.6-4.5-9-3.5-13.5s1.3-9,0-11.6c0,0-1.6-4.5-8.4-4.8c-6.7-0.3-12.7-0.3-15-6.1
							s-8.1-6.1-11.3-3.9c-3.2,2.2-10.6,6.4-15.7,0c-5.1-7.7-12.5-28-3.2-40.2s26.4-10.6,30.3,0s10.2,13.2,16.3,15.1
							c12.4,3.9,28,12.5,29.6,27c9.5,6.2,9.4,29.8-6.1,40.5C1107.4,676,1100.6,676,1096.7,680.9z"/>
						<path class="st18" d="M1078.6,706.7c-2.5,6,3.3,18.9,10.1,24.2c-4.5,10.2-26.4,14.2-34.4,4.3c5.5-15.2,5.3-22.6-1.1-28.5
							C1046.7,701,1078.6,706.7,1078.6,706.7z"/>
						<path class="st19" d="M1078.5,714.3c-4.2,3.8-13.7,9.3-20.9,9.4c0.9-4.6,0.7-8.2-0.4-11.3c7.7,0.6,15.1-1.6,21.1-4.9
							C1077.8,709.4,1077.9,711.8,1078.5,714.3z"/>
					</g>
					<path class="st20" d="M1064.3,599.1c3.5,2.9,4.3,7.3,6.1,11.3c2.5,5.8,7.7,7.1,13.2,9c9.7,3.3,18.6,7.9,25.2,15.9
						c0.8,1-0.6,2.4-1.4,1.4c-7.8-8.9-19.1-11.8-29.8-15.7c-3.8-1.4-7.2-3.3-9.4-6.9c-2.5-4.2-2.8-9.2-6.4-12.7
						C1060.3,599.9,1062.7,597.7,1064.3,599.1z M1109.6,672.7c7.3-6.2,9.5-16.3,5.8-25.1c-0.5-1.1-2.5-0.4-2,0.8
						c3,8,0.7,16.7-5.8,22.1C1106,671.8,1108.1,673.9,1109.6,672.7z"/>
				</g>
			</g>
			
				<linearGradient id="SVGID_10_" gradientUnits="userSpaceOnUse" x1="2184.5037" y1="859.5828" x2="2184.5037" y2="711.5824" gradientTransform="matrix(-1 0 0 -1 3065.6538 1600)">
				<stop  offset="0" style="stop-color:#C27926"/>
				<stop  offset="1" style="stop-color:#DC8F2A"/>
			</linearGradient>
			<polygon class="st21" points="765.8,904.6 996.5,904.6 996.5,721.2 765.8,721.2 			"/>
			<path class="st18" d="M908.1,854c6,4.1,34.2,14.3,34.2,14.3s31.6,15.1,56.2,20.3c12.3-8.6,13.4-30.1,13.4-40.6
				c0,0-42.4-1.5-50.2-3s-11.2-35.7-14.1-39.1c-3-3.3-6.3,0-6,7.4c0.4,7.4-0.4,13.4-3.7,13.4s-23.8-32.4-26.8-32.4
				s1.9,13.8,7.1,23.4c5.2,9.7-20.8-12.3-23.8-9.3s19.4,16.7,17.5,19.4s-29.2-8.2-28.7-4.8c1.1,6.7,26.1,10.8,23.8,15.6
				c-2.2,4.8-26.1-2.6-25.3,2.8C882.4,846.9,908.1,854,908.1,854z"/>
			<g>
				<path class="st18" d="M781.7,817.8c5-6,10.4-28.3,11.9-33.7c1.5-5.5,5.5,0,6.5,5.5s-2,11.9,5,13.9s30.8-26.3,34.2-23.8
					c3.5,2.5-20.8,25.8-18.9,28.3c2,2.5,33.7-17.9,37.2-13.4s-33.2,19.8-31.8,23.3c1.5,3.5,30.7-9.7,32-4.9c1.3,4.9-29,11.8-29,14.8
					s24.8,3.1,24.8,6.5s-26.8,3.4-26.8,3.4s-19.4,16.7-41.7,3.9l-15.9,13l-10.9-29.3L781.7,817.8z"/>
				<g>
					<g>
						<path class="st14" d="M628.8,646.6c4.8,16.7-5,35.2-19.8,40.2c-14.9,5-49.1,48.6,13.4,81.9c25.8-10.9,117.6-28.3,117.6-28.3
							c17.4-20.3-8.4-36.2-0.5-59.5c2.7-8,16.9-14.9,13.4-33.2c-2.5-13.2-18-14.6-16.4-21.3c2.5-10.3,4-25-9.7-24.6
							c-13.6,0.3-2.8-15-22.2-22.3c-17.7-6.7-34.5,1.5-42.2,10.6c-7.5,8.8-11,19.6-21.8,22.5C629.7,615.3,622.9,625.9,628.8,646.6z"
							/>
						<path class="st20" d="M699.4,582.9c4.1,0.7,7.8,1.9,10.5,5.3c3,4,4.4,14.5,10.2,14.9c1,0.1,1.3,1.6,0.2,1.8
							c-4.5,0.8-6.9-2.6-8.5-6.4c-1.1-2.7-2.2-5.5-3.9-7.9c-2.3-3.3-5.6-4-9.3-4.8C696.7,585.4,697.6,582.6,699.4,582.9z
							 M731.6,629.3c0.4,1.2,2,0.8,1.9-0.5c-0.8-6.1,4.7-12,0.3-17.7c-1-1.3-3.2,0.4-2.3,1.7C734.5,617.8,730,623.8,731.6,629.3z
							 M736.4,711.7c0.9,1.2,2.7,0.3,2.1-1.2c-4.9-11.5-6.3-23.4,0.4-34.6c5.1-8.4,12.6-17.2,8.2-27.6c-0.8-2-4.2-0.6-3.5,1.4
							c4.3,12.2-8.5,22.1-11.5,33.2C729.8,692.2,730.5,703.8,736.4,711.7z M671.9,624.2c11.3,4.6,19.6-7.5,29.4-10.7
							c1.1-0.3,0.7-2-0.4-1.7c-9.7,2.1-17.5,13.2-28.1,9.5C670.8,620.6,670.1,623.5,671.9,624.2z"/>
					</g>
					<path class="st22" d="M600.8,992.5c-2.3,4.8,19.6,22.1,36.9,25.5c3.2-7.6-2.1-32.3-2.1-32.3S605.4,982.7,600.8,992.5z"/>
					<g>
						<g>
							<path class="st18" d="M765.8,1223c0,0-8.9,74-4.4,93.2c17.3,20.7,49.4,20.7,52.1,37.7c-43.6,0-93.8-4.4-93.8-4.4
								s-6.7-20.7,7.7-38.4c2.7-54.7-3.4-107.7-3.4-107.7L765.8,1223z"/>
							<path class="st23" d="M813.5,1353.9c0,0,2.9-10-9.7-15.8c-12.7-5.8-32.6-16-35.5-19.1c-2.9-3.2-5.6-5.6-12.7-1.4
								c-7,4.2,0.7,16.5-7.7,17c-5.7,0.4-12.7-0.6-19.4-2.6c-3.2-0.9-3.9-7.7-7.6-9.7c-3.5,7.3-4.4,22.1-1.2,27.1
								C739.1,1353.9,813.5,1353.9,813.5,1353.9z"/>
						</g>
						<g>
							<path class="st18" d="M656.4,1225.5c0,0-28.8,70.8-27.3,90c14,20.7,51,21.4,51,38.4c-43.6,0-93.1-4.4-93.1-4.4
								s-3.4-20.7,13.8-38.4c11.3-54.7,12.1-107.7,12.1-107.7L656.4,1225.5z"/>
							<path class="st23" d="M681.1,1355.1c0,0,2.9-10-9.7-15.8c-12.7-5.8-32.6-16-35.5-19.1c-2.9-3.2-5.6-5.6-12.7-1.4
								c-7,4.2,0.7,16.5-7.7,17c-5.7,0.4-12.7-0.6-19.4-2.6c-3.2-0.9-3.9-7.7-7.6-9.7c-3.5,7.3-4.4,22.1-1.2,27.1
								C606.7,1355.1,681.1,1355.1,681.1,1355.1z"/>
						</g>
						<g>
							<path class="st24" d="M766.2,1232.2c0-0.2-2.1,20-2.1,20s-7.4,3.5-18.9,3.5s-19-3.1-19-3.1l-1.1-19.4L766.2,1232.2z"/>
							<path class="st24" d="M657,1228.6l-9,19.6c0,0-28,7.2-39-12c0.7-11.4,2.1-23.5,2.1-23.5L657,1228.6z"/>
							<path class="st16" d="M768.8,986.1c6.2,26.3,11.8,156,5.8,232.6c-0.8,9.6-8.2,17.4-17.8,18.6c-9.7,1.1-19,0.7-26.6-0.1
								c-10.4-1.2-18.3-10-18.5-20.5c-0.6-35.7-2.6-116.6-9.4-138.9c-10.2,48.7-25.3,108.5-33,137.9c-2.9,11.3-13.9,18.7-25.5,17.2
								c-8.3-1.1-18-3.4-26.7-7.9c-10.1-5.3-15.5-16.6-13.3-27.9c12.8-66.6,26.6-197.4,24.6-222
								C687.5,966.9,768.8,986.1,768.8,986.1z"/>
							<path class="st17" d="M716.2,1082.8c1.6,29.9,4,67.8,4.4,85.7c0.3,15.3-2.2,50-1,64.1c-4.8-3.8-7.8-9.6-7.9-16.1
								c-0.6-35.7-2.6-116.6-9.4-138.9c3.5-15.6,9.5-59.7,9.5-59.7S714.6,1052.9,716.2,1082.8z"/>
							<path class="st4" d="M611.9,1203.7c1.2-3.4,2.8-7.7,4.4-14.2l0.4-1.7c5-20.7,20.4-83.7,21.5-117.7
								c1.2-34.6,3.7-81.4,3.7-81.9h0.9c0,0.3-1.3,23.5-2.4,49.3c8.4-2.7,17.5-27.6,17.5-43.2h0.9c0,15-8.9,41.6-18.5,44.1
								c-0.5,10.6-0.9,21.7-1.3,31.7c-1.2,34-16.5,97.1-21.6,117.8l-0.4,1.7c-1.6,6.6-3.1,10.9-4.4,14.3c-2.1,5.7-3.2,8.9-2,15.7
								l-0.9,0.2C608.6,1212.8,609.8,1209.5,611.9,1203.7z"/>
						</g>
					</g>
					<path class="st23" d="M765.8,818.4c0,0,7.4,15.8,8.9,41.1l-6.5,6.9c0,0,13.2,63.7,17.5,105.1c1.3,12.4-6.9,23.8-19.1,26.6
						c-51.1,11.4-93.6,1.2-111.6-3.2c-20.3-5-45.2-10.9-55.1-5c8.9-30.8,20.3-96.3,16.9-118.1c-13.4-8.4-20.8-50.6-12.4-79.9
						c8.4-29.3,24.3-42.7,40.7-50.6c16.4-7.9,48.6-21.4,72.4-20.1c23.8,1.3,48.1,18.4,48.1,18.4v78.8H765.8z"/>
					<g>
						<path class="st18" d="M706.7,686.8c-4.2,7.1-3.5,29.8,9.4,39.7c-15.9,14.9-36.8,1.1-36.8,1.1s12.5-19.5,3.1-40.8
							C692.8,681.8,706.7,686.8,706.7,686.8z"/>
						<path class="st19" d="M705,705.2c-6.4,2.7-13.2,2.5-19.1-0.7c0.1-5.5-0.8-11.5-3.5-17.7c10.4-5,24.3,0,24.3,0
							C704.7,690.3,703.8,697.5,705,705.2z"/>
						<path class="st18" d="M647,661.8c-0.8,6.1,4.1,13.8,10.6,10.1c5,14.4,34.2,33.2,56.6,16.4s10.4-54.6,0-66
							c0,0-10.4-8.2-16.4-2.4c-6.1,5.8-12.4,9.9-20.1,7.4c-7.7-2.5-14.9,8-14,12.1c0.8,4.1,2.5,20.1-4.1,22.3
							c-0.6-0.7-1.1-1.5-1.5-2.1C655,655,647.7,656.4,647,661.8z"/>
					</g>
					<path class="st4" d="M651.8,798.4c0,13.6,9.8,31.7,25.6,37.1c19.1,6.6,66-5.9,88-14.3v0.9c-17.9,6.8-51.5,16.1-74,16.1
						c-5.6,0-10.5-0.6-14.3-1.9c-16.2-5.6-26.2-24-26.2-37.9L651.8,798.4L651.8,798.4z"/>
					<path class="st22" d="M767.8,869.8c-11.4,8.8-97.9,45.9-150.3,5.4c0.6,6.7,0.6,13.1,0.6,13.1c22,14.1,47.1,19.4,84.1,12.8
						C734.6,895.3,762.8,874.3,767.8,869.8z"/>
				</g>
			</g>
			<rect x="758.4" y="715.7" class="st25" width="245.6" height="32.4"/>
		</g>
		<g>
			<g>
				<g>
					
						<linearGradient id="SVGID_11_" gradientUnits="userSpaceOnUse" x1="1384.4747" y1="952.493" x2="1486.2291" y2="850.7387" gradientTransform="matrix(1 0 0 -1 0 1600)">
						<stop  offset="0" style="stop-color:#FF8455"/>
						<stop  offset="1" style="stop-color:#B12D00"/>
					</linearGradient>
					<path class="st26" d="M1439.7,676.5c-21.2-31.2-60.8-13.1-60.8,20c0,29.3,19.8,52.4,60.8,85.1c41-32.7,60.8-55.8,60.8-85.1
						C1500.5,663.4,1460.9,645.3,1439.7,676.5z"/>
				</g>
				<path class="st4" d="M1405.7,665.9c-21.8,12.4-22.5,41.5-7.2,59.4c2.8,3.3,7.3-1.5,4.7-4.8c-11.9-15.2-12.6-38.9,5.1-50.2
					C1411.1,668.5,1408.6,664.3,1405.7,665.9z"/>
			</g>
			<g>
				<path class="st18" d="M1585.4,729c-9.7,0.8-63-11-63-11s-15.4-20.7-23.8-21c-16.1,10.8-23.4,11.4-22.4,17.1
					c0.9,5.6,20.1,0.2,20.1,0.2s-1.2,6.3-5.2,14.3c-5.1,10.1-8.9,13.3-8.9,13.3s26.1,7.1,34.1,0.8c11.2,3.6,63.9,23.5,63.9,23.5
					L1585.4,729z"/>
				<g>
					<path class="st14" d="M1927.9,1285.2c0,0,27.4,19.3,29.6,27.4c-8.9,14.8-20,20-25.9,28.9s-18.5,11.1-31.1,11.1s-28.7,0-28.7,0
						s-0.2-10.4,14.6-14.8c14.8-4.4,24.4-22.2,22.2-37.8S1927.9,1285.2,1927.9,1285.2z"/>
					<path class="st14" d="M1742,1306.6c0,0,10.4,29.6,5.9,41.5c-15.6,0-34.1,1.5-46.7,4.4s-46.7,0-46.7,0s-0.7-14.1,13.3-14.1
						c14.1,0,45.2-31.8,45.2-31.8H1742z"/>
					<g>
						<path class="st16" d="M1693.6,914.7c-6.5,38.7-9.3,346.8,1.3,397.9c0,0,37.5,12.5,54.6-5.3c-2.2-43.7-0.7-176.4,8.9-209.7
							c12.6,39.3,101.5,192.7,140.7,210.5c19.3,1.5,40.7-25.2,40.7-25.2c-25.9-22.2-80.7-136.4-94.1-158.6s-16.3-48.1-17.8-66.7
							c-1.5-18.5,16.3-105.3,11.9-155.6C1733.1,905.1,1693.6,914.7,1693.6,914.7z"/>
						<path class="st17" d="M1745.4,917h-10.2c0,0,3.7,73.6,2.5,151.7c-1.3,81.6-7.4,212.4-1.5,246.3c4.9-1.4,9.5-3.9,13.2-7.7
							c-2.2-43.7-0.7-176.4,8.9-209.7C1748.1,1062.1,1743.7,933.1,1745.4,917z"/>
					</g>
				</g>
				<g>
					<path class="st15" d="M1679.9,917.9c-5.9-3.7-7.8-11.4-4.4-17.4c9.8-17.6,28.2-54.2,23.6-74.2c-6.2-26.9-120.3-54.7-120.3-54.7
						c-8.6-12.3-7.3-30.2,6.2-47.1c25.3,6.3,109.1,17,141.4,1.2c15.5-7.6,62.5-10.5,87.4-5.6c29.8,5.9,49.3,26.4,65.1,86
						c8.9,33.6,0.1,80.9-9.7,96.8c-3.9,6.3-19.6,2.8-19.6,2.8s6.4,21.6-5.8,36.5C1750.5,953.5,1699.9,930.5,1679.9,917.9z"/>
					<path class="st16" d="M1706.3,781.7c0,0-5.6,17.7-15.9,15.2c-9.7-2.4-89-30.1-115.8-33.8c0.9,3,2.3,5.9,4.1,8.5
						c0,0,114.1,27.7,120.3,54.7c1.1,4.7,0.9,10.4-0.2,16.4l0,0C1705.8,811.7,1708.8,790.8,1706.3,781.7z"/>
				</g>
				<path class="st18" d="M1818.8,886.5c-3.8,10.3-9.6,22-15.1,29.4c-5.4,7.3-30.3,1.1-35,6.8c-2.5,3,5.3,9,14.9,10
					c9.5,1,1.7,22.9-15,36s-5.2,15.4,5.5,5.9c10.7-9.4,22.3-16.4,17.8-9.3c-4.5,7.1-20.2,17.3-18.2,20.3c2.1,3.1,25.9-12.6,29.4-19
					c-5.5,12.2-18.5,19.8-18.4,23.8s15.9-4.4,23.5-18.4c-2.5,12.8-9.6,19.6-9.2,22s14.6-6.8,19.1-34.2c16.1-27.8,31.4-54,31.4-54
					S1831.7,899.6,1818.8,886.5z"/>
				<path class="st27" d="M1699.3,840.4c3.4-15.8,12.7-48.6,4.7-79.5"/>
				<path class="st27" d="M1818.8,886.5c-1.9-2.2-3.5-4.5-4.7-7c7.9-19.9,23.3-60.9-4.4-97.8"/>
				<g>
					<path class="st14" d="M1695.4,653.5c-10.9-5.1-23.1-29.8-13.6-46.2c6.1-10.5,20.6-0.5,32.5-4.3s25.9-2.1,34.2,3.1
						c0,0,18.8-3.6,24.1,15.1c5.3,18.7-4.6,49.5-4.6,49.5l-21.1,13.5L1695.4,653.5"/>
					<path class="st18" d="M1727.6,703.3c7.2,6.4,7.8,17.6,2.2,24.9c-1.8,2.3-1.2,5.6,1.4,7.1c11.5,6.6,28.4,3.1,34.3-9.5
						c-10.2-14.5-17.2-32-17.2-32L1727.6,703.3z"/>
					<path class="st19" d="M1733.3,713.5c4.5,0.6,8.7,0.5,13-0.9c3.3-1.1,6.1-2.8,8.6-4.7c-4.1-8-6.6-14.2-6.6-14.2l-20.7,9.6
						C1730.7,706,1732.6,709.7,1733.3,713.5z"/>
					<path class="st18" d="M1700.1,642.4c-2.1-0.3-3.7,2.1-4,4.3c-2.3,16.4-2.1,51.4,25.5,58.9c24.5,6.6,38.9-11.1,43.3-17.7
						c0.9-1.4,2.4-2.2,4-2.3c4.2-0.2,12.2-1.6,13.5-9.7c1.6-10.3-11.2-15.9-19.2-7.5c-1.8,1.8-4.6,2.2-6.7,0.7
						c-3.8-2.7-4-7.9-3.7-11.3c0.2-2-0.8-4-2.6-5c-1.3-0.7-5.1-4.6-6.5-8s-0.3-6.5-4.7-9.1C1724.5,627.3,1709.2,643.7,1700.1,642.4z
						"/>
					<path class="st20" d="M1691.6,645.4c-4.1-4.9-7.1-10.7-8.8-16.9c-1.5-5.5-2.7-12.1,0.9-17c1.1-1.5,3.5-0.3,2.6,1.5
						c-4.9,9.9,2,22.4,7.3,30.8C1694.3,645.1,1692.5,646.5,1691.6,645.4z M1738,606.5c-5.2-3.3-10.9-2.2-16.5-0.6
						c-8.6,2.4-16,1.8-24.9,0.7c-0.9-0.1-1.2,1.1-0.3,1.4c6.3,1.7,12.8,3.1,19.3,2.1c7.1-1.1,14.1-5.2,21-1
						C1738.2,609.9,1739.5,607.5,1738,606.5z"/>
				</g>
			</g>
		</g>
		<path class="st28" d="M675.6,367.1c-31.9,11.3-5.5,33.9-41.5,52.4c-36.1,18.6-61.2,47.6-37.2,73.5c24,25.9,112.5-34.6,135.5,0
			c22.9,34.6,94,35.5,133.3,6.6c39.3-28.8,108.2,9.4,100.5-40.8c-7.7-50.3-65.6-15.3-98.4-47c-32.8-31.7-81.9-44.8-104.9-30.6
			C740,395.5,706.4,356.2,675.6,367.1z"/>
		<path class="st28" d="M1414.8,451.4c-23.5,22.3-85.1-12.3-86.5,30.2s83.9,20.7,92,44.6c8.2,24,66.7,30.8,99.8-11.7
			c14.3-18.4,39.1-21,62.2-22.9c30.4-2.5,58.1-3.6,55.6-37.3c-2.7-37-51.7-34.2-76.3-23.4c-19.3,8.4-34,27.7-50.9,20.5
			C1472.5,434.9,1442.3,425.3,1414.8,451.4z"/>
	</g>
</g>
</svg>
